{"title":"Fast.&amp;.Furious.6.2013.WEBDLRip-TST","uid":8642353,"size":1818869760,"categoryP":"video","categoryS":"movies","magnet":"?xt=urn:btih:2a8d611981188414ba065f21f7902ba7826e1027&amp;dn=Fast.%26amp%3B.Furious.6.2013.WEBDLRip-TST&amp;tr=udp%3A%2F%2Ftracker.openbittorrent.com%3A80&amp;tr=udp%3A%2F%2Fopen.demonii.com%3A1337&amp;tr=udp%3A%2F%2Ftracker.coppersurfer.tk%3A6969&amp;tr=udp%3A%2F%2Fexodus.desync.com%3A6969","seeders":1,"leechers":0,"uploader":"Helliod","files":1,"time":1372900392,"description":"File: Fast&amp;Furious.6.2013.WEBDLRip-TST.avi\nFileSize: 1734.61 Mb ( 1 818 869 760 bytes )\nPlay length: 02:10:05.380 (187142 frames)\nSubtitles: avi (TMPlayer format)\nVideo: 720x304 (2.37:1), 23.976 fps, XviD build 50 ~1662 kbps avg, 0.32 bit/pixel\nAudio: 48 kHz, AC3 Dolby Digital, 2/0 (L,R) ch, ~192 kbps\n\n\nGeneral\nFast&amp;Furious.6.2013.WEBDLRip-TST.avi\nFormat : AVI\nFormat/Info : Audio Video Interleave\nFile size : 1.69 GiB\nDuration : 2h 10mn\nOverall bit rate : 1 864 Kbps\nWriting application : VirtualDubMod 1.5.10.2 (build 2540/release)\nWriting library : VirtualDubMod build 2540/release\n\nVideo\nID : 0\nFormat : MPEG-4 Visual\nFormat profile : Advanced Simple@L5\nFormat settings, BVOP : 2\nFormat settings, QPel : No\nFormat settings, GMC : No warppoints\nFormat settings, Matrix : Default (MPEG)\nCodec ID : XVID\nCodec ID/Hint : XviD\nDuration : 2h 10mn\nBit rate : 1 663 Kbps\nWidth : 720 pixels\nHeight : 304 pixels\nDisplay aspect ratio : 2.35:1\nFrame rate : 23.976 fps\nColor space : YUV\nChroma subsampling : 4:2:0\nBit depth : 8 bits\nScan type : Progressive\nCompression mode : Lossy\nBits/(Pixel*Frame) : 0.317\nStream size : 1.51 GiB (89%)\nWriting library : XviD 1.2.1 (UTC 2008-12-04)\n\nAudio\nID : 1\nFormat : AC-3\nFormat/Info : Audio Coding 3\nMode extension : CM (complete main)\nCodec ID : 2000\nDuration : 2h 10mn\nBit rate mode : Constant\nBit rate : 192 Kbps\nChannel(s) : 2 channels\nChannel positions : Front: L R\nSampling rate : 48.0 KHz\nBit depth : 16 bits\nCompression mode : Lossy\nStream size : 179 MiB (10%)\nAlignment : Split accross interleaves\nInterleave, duration : 42 ms (1.00 video frame)\nInterleave, preload duration : 500 ms\n","torrent":{"xt":"urn:btih:2a8d611981188414ba065f21f7902ba7826e1027","amp;dn":"Fast.%26amp%3B.Furious.6.2013.WEBDLRip-TST","amp;tr":["udp%3A%2F%2Ftracker.openbittorrent.com%3A80","udp%3A%2F%2Fopen.demonii.com%3A1337","udp%3A%2F%2Ftracker.coppersurfer.tk%3A6969","udp%3A%2F%2Fexodus.desync.com%3A6969"],"infoHash":"2a8d611981188414ba065f21f7902ba7826e1027","infoHashBuffer":{"type":"Buffer","data":[42,141,97,25,129,24,132,20,186,6,95,33,247,144,43,167,130,110,16,39]},"announce":[],"urlList":[]}}